<svg xmlns="http://www.w3.org/2000/svg" xmlns:xlink="http://www.w3.org/1999/xlink" width="234.676" height="73.531" viewBox="0 0 234.676 73.531">
  <defs>
    <clipPath id="clip-path">
      <rect id="Rectangle_5" data-name="Rectangle 5" width="234.676" height="73.531" fill="none"/>
    </clipPath>
  </defs>
  <g id="Group_3" data-name="Group 3" transform="translate(-843 -63)">
    <g id="Group_2" data-name="Group 2" transform="translate(843 63)">
      <g id="Group_1" data-name="Group 1" transform="translate(0 0)" clip-path="url(#clip-path)">
        <path id="Path_1" data-name="Path 1" d="M32.666,73.532a6.14,6.14,0,0,1-3.071-.821L3.071,57.4A6.158,6.158,0,0,1,0,52.079V21.453a6.16,6.16,0,0,1,3.071-5.319L29.594.82a6.163,6.163,0,0,1,6.143,0L62.26,16.134a6.16,6.16,0,0,1,3.071,5.319V52.079A6.158,6.158,0,0,1,62.26,57.4L35.737,72.711a6.142,6.142,0,0,1-3.071.821m0-72.393a5,5,0,0,0-2.5.669L3.641,17.12a5.018,5.018,0,0,0-2.5,4.333V52.079a5.015,5.015,0,0,0,2.5,4.332L30.165,71.725a5.021,5.021,0,0,0,5,0L61.691,56.411a5.015,5.015,0,0,0,2.5-4.332V21.453a5.018,5.018,0,0,0-2.5-4.333L35.167,1.807a5,5,0,0,0-2.5-.669" transform="translate(0 0)" fill="#ffc000"/>
        <path id="Path_2" data-name="Path 2" d="M33.567,65.688a6.148,6.148,0,0,1-3.071-.82L11.666,54a6.159,6.159,0,0,1-3.071-5.319V26.935a6.159,6.159,0,0,1,3.071-5.319L30.5,10.745a6.159,6.159,0,0,1,6.143,0L55.467,21.616a6.16,6.16,0,0,1,3.071,5.319V48.677A6.16,6.16,0,0,1,55.467,54L36.638,64.868a6.15,6.15,0,0,1-3.071.82m0-54.625a5,5,0,0,0-2.5.669L12.237,22.6a5.017,5.017,0,0,0-2.5,4.333V48.677a5.017,5.017,0,0,0,2.5,4.333L31.066,63.881a5.016,5.016,0,0,0,5,0L54.9,53.01a5.017,5.017,0,0,0,2.5-4.333V26.935A5.017,5.017,0,0,0,54.9,22.6L36.068,11.731a5,5,0,0,0-2.5-.669" transform="translate(-0.901 -1.041)" fill="#ffc000"/>
        <path id="Path_3" data-name="Path 3" d="M48.63,33.43A1.523,1.523,0,0,0,46.9,31.7c-1.862,0-3.724,0-5.586,0-.1,0-.251.088-.3-.1A3.6,3.6,0,0,0,42.364,27.8a3.407,3.407,0,0,0-5.4-1.623,5.962,5.962,0,0,0-1.86,3.068c-.066.219-.054.475-.265.676a6.94,6.94,0,0,0-1.693-3.44,3.405,3.405,0,0,0-5.726,1.277,3.5,3.5,0,0,0,1.351,3.852c-.141.139-.268.082-.381.082-1.844,0-3.688,0-5.533.005a1.523,1.523,0,0,0-1.72,1.694q-.019,1.488,0,2.975a1.435,1.435,0,0,0,1.2,1.536c.426.041.444.223.443.559q-.013,6.288,0,12.578a2.2,2.2,0,0,0,2.408,2.391q9.709,0,19.419,0A2.216,2.216,0,0,0,47,51.03q0-5.272,0-10.543,0-1.1,0-2.191c0-.176-.017-.313.243-.364a1.459,1.459,0,0,0,1.387-1.682c.006-.94.008-1.88,0-2.819M36.163,29.948a5.3,5.3,0,0,1,1.277-2.582,2.242,2.242,0,0,1,2.339-.635,1.888,1.888,0,0,1,1.439,1.422,2.357,2.357,0,0,1-1.265,2.66,5.524,5.524,0,0,1-2.681.523c-1.43,0-1.442-.005-1.109-1.388m-7.637-1.675a2.171,2.171,0,0,1,3.332-1.284,3.938,3.938,0,0,1,1.46,2.033,12.9,12.9,0,0,1,.492,1.909c.061.288-.059.326-.278.34-.38.025-.761.056-1.14.085a5.787,5.787,0,0,1-2.528-.513,2.33,2.33,0,0,1-1.338-2.57M45.8,51.812a.423.423,0,0,1-.423.422H24.391a.422.422,0,0,1-.423-.422V38.358c0-.314.08-.418.406-.416H35.95l.059,0c.224,0,.447,0,.67,0h8.7c.006,0,.012,0,.017,0,.278.013.388.1.4.4,0,.005,0,.011,0,.016ZM47.429,36.2c.01.393-.1.564-.523.563q-5.3-.016-10.592,0l-13.593.026a.353.353,0,0,1-.354-.353v-.008a1.024,1.024,0,0,1-.022-.272c.016-.455.021-.91.019-1.366v-.045c0-.452-.008-.9-.015-1.355-.006-.354.115-.5.482-.5q5.532.013,11.064,0c.019,0,.033,0,.05,0l13.109-.025a.349.349,0,0,1,.344.3.961.961,0,0,1,.033.317c-.014.448-.02.9-.02,1.345v.025q0,.67.018,1.34" transform="translate(-2.215 -2.666)" fill="#ffc000"/>
        <rect id="Rectangle_1" data-name="Rectangle 1" width="1.146" height="4.872" transform="translate(33.023 29.934)" fill="#ffc000"/>
        <rect id="Rectangle_2" data-name="Rectangle 2" width="1.146" height="4.872" transform="translate(31.162 29.934)" fill="#ffc000"/>
        <path id="Path_4" data-name="Path 4" d="M105.8,34.469h-.966v6.317h-2.131l-.273-1.883a5.546,5.546,0,0,1-1.957,1.536,6.4,6.4,0,0,1-2.848.594,6.726,6.726,0,0,1-5.388-2.366,8.672,8.672,0,0,1-2.02-5.835,8.779,8.779,0,0,1,2.131-5.92,7.477,7.477,0,0,1,5.994-2.477,10.2,10.2,0,0,1,3.493.557,6.852,6.852,0,0,1,2.378,1.35l.447,3.319-2.255.223-.446-2.031a6.326,6.326,0,0,0-3.667-.991A4.834,4.834,0,0,0,94.606,28.4a6.183,6.183,0,0,0-1.436,4.385A6.226,6.226,0,0,0,94.531,37.1a4.577,4.577,0,0,0,3.568,1.51,4.094,4.094,0,0,0,2.923-1,3.341,3.341,0,0,0,1.065-2.54v-.594H98.669V32.116H105.8Z" transform="translate(-9.458 -2.562)" fill="#ffc000"/>
        <path id="Path_5" data-name="Path 5" d="M125.5,32.71a8.481,8.481,0,0,1-2.2,5.871,7.686,7.686,0,0,1-6.019,2.452,7.487,7.487,0,0,1-5.971-2.452,8.584,8.584,0,0,1-2.131-5.822,8.377,8.377,0,0,1,2.23-5.921,7.72,7.72,0,0,1,5.946-2.4,7.609,7.609,0,0,1,5.957,2.439A8.434,8.434,0,0,1,125.5,32.71m-2.973.074a6.417,6.417,0,0,0-1.374-4.31,4.762,4.762,0,0,0-3.829-1.61,4.611,4.611,0,0,0-3.877,1.672,6.562,6.562,0,0,0-1.3,4.149,6.9,6.9,0,0,0,1.276,4.163,5.34,5.34,0,0,0,7.817.112,6.576,6.576,0,0,0,1.287-4.175" transform="translate(-11.445 -2.562)" fill="#ffc000"/>
        <path id="Path_6" data-name="Path 6" d="M145.372,32.71a8.481,8.481,0,0,1-2.2,5.871,7.686,7.686,0,0,1-6.019,2.452,7.487,7.487,0,0,1-5.971-2.452,8.584,8.584,0,0,1-2.131-5.822,8.377,8.377,0,0,1,2.23-5.921,7.72,7.72,0,0,1,5.946-2.4,7.61,7.61,0,0,1,5.957,2.439,8.434,8.434,0,0,1,2.192,5.835m-2.973.074a6.417,6.417,0,0,0-1.374-4.31,4.762,4.762,0,0,0-3.829-1.61,4.611,4.611,0,0,0-3.877,1.672,6.562,6.562,0,0,0-1.3,4.149,6.9,6.9,0,0,0,1.276,4.163,5.34,5.34,0,0,0,7.817.112,6.576,6.576,0,0,0,1.287-4.175" transform="translate(-13.528 -2.562)" fill="#ffc000"/>
        <path id="Path_7" data-name="Path 7" d="M164.469,32.714a8.1,8.1,0,0,1-2.156,5.859,7.89,7.89,0,0,1-5.97,2.242h-7.482V38.462h1.858v-11.4h-1.858V24.712H156.2q4.062,0,6.168,2.23a8.067,8.067,0,0,1,2.106,5.772m-2.949.025q0-5.673-5.4-5.674h-2.651v11.4h2.651q5.4,0,5.4-5.723" transform="translate(-15.605 -2.591)" fill="#ffc000"/>
        <path id="Path_8" data-name="Path 8" d="M174.4,40.815h-6.44V38.462h1.857v-11.4h-1.857V24.712h6.44v2.353h-1.833v11.4H174.4Z" transform="translate(-17.607 -2.591)" fill="#ffc000"/>
        <path id="Path_9" data-name="Path 9" d="M189.656,40.815H177.394V38.462h1.857v-11.4h-1.857V24.712h12.089l.494,4.658-2.353.2-.5-2.5H182v4.46h7.085v2.353H182v4.584h5.3l.5-2.5,2.353.2Z" transform="translate(-18.596 -2.591)" fill="#ffc000"/>
        <path id="Path_10" data-name="Path 10" d="M205.445,36.054a4.381,4.381,0,0,1-1.672,3.692,7.054,7.054,0,0,1-4.422,1.287,12.5,12.5,0,0,1-3.158-.4,6.149,6.149,0,0,1-2.415-1.14l.446-3.691,2.2.223-.05,1.982a5.127,5.127,0,0,0,1.5.532,7.922,7.922,0,0,0,1.276.112,5.531,5.531,0,0,0,2.391-.457,1.843,1.843,0,0,0,.953-1.847,2,2,0,0,0-1.09-2.019,10.742,10.742,0,0,0-2.5-.781,20.538,20.538,0,0,1-2.3-.594,4.247,4.247,0,0,1-1.932-1.239,3.741,3.741,0,0,1-.768-2.552,3.981,3.981,0,0,1,1.721-3.629,7,7,0,0,1,3.853-1.1,9.455,9.455,0,0,1,2.886.446,5.9,5.9,0,0,1,2.192,1.165l.149,3.394-2.2.2-.223-2.082a4.827,4.827,0,0,0-1.388-.544,6.414,6.414,0,0,0-1.337-.149,3.653,3.653,0,0,0-1.933.47,1.886,1.886,0,0,0,.186,3.159,11.236,11.236,0,0,0,2.142.706q1.015.223,2.305.594a5.139,5.139,0,0,1,2.242,1.325,4,4,0,0,1,.953,2.936" transform="translate(-20.313 -2.562)" fill="#ffc000"/>
        <path id="Path_11" data-name="Path 11" d="M223.178,29.964l-2.378.2-.5-3.1h-3.147v11.4h2.7v2.353h-8.051V38.462h2.6v-11.4h-3.171l-.5,3.1-2.353-.2.5-5.252h13.8Z" transform="translate(-21.845 -2.591)" fill="#ffc000"/>
        <path id="Path_12" data-name="Path 12" d="M242.645,32.71a8.481,8.481,0,0,1-2.2,5.871,7.686,7.686,0,0,1-6.019,2.452,7.487,7.487,0,0,1-5.971-2.452,8.584,8.584,0,0,1-2.13-5.822,8.377,8.377,0,0,1,2.23-5.921,7.72,7.72,0,0,1,5.946-2.4,7.609,7.609,0,0,1,5.957,2.439,8.434,8.434,0,0,1,2.192,5.835m-2.973.074a6.418,6.418,0,0,0-1.374-4.31,4.762,4.762,0,0,0-3.829-1.61,4.611,4.611,0,0,0-3.877,1.672,6.562,6.562,0,0,0-1.3,4.149,6.9,6.9,0,0,0,1.276,4.163,5.34,5.34,0,0,0,7.817.112,6.576,6.576,0,0,0,1.287-4.175" transform="translate(-23.725 -2.562)" fill="#ffc000"/>
        <path id="Path_13" data-name="Path 13" d="M260.477,40.815h-3.765l-3.319-6.366h-2.651v4.013h1.883v2.353h-6.49V38.462h1.857v-11.4h-1.857V24.713h7.159a6.835,6.835,0,0,1,4.483,1.251,4.329,4.329,0,0,1,1.488,3.505,4.51,4.51,0,0,1-.855,2.763,4.66,4.66,0,0,1-2.366,1.647l2.452,4.583h1.982Zm-4.137-11.272a2.186,2.186,0,0,0-.793-1.92,4.875,4.875,0,0,0-2.7-.558h-2.106v5.179h2.081a4.092,4.092,0,0,0,2.75-.706,2.573,2.573,0,0,0,.768-1.994" transform="translate(-25.802 -2.591)" fill="#ffc000"/>
        <path id="Path_14" data-name="Path 14" d="M131.526,53.946h-1.17v-.621h1.17V52.5a1.422,1.422,0,0,1,.469-1.2,2.314,2.314,0,0,1,1.428-.363,8.045,8.045,0,0,1,.853.053v.621a6.328,6.328,0,0,0-.822-.053,1.181,1.181,0,0,0-.754.19.856.856,0,0,0-.226.685v.885h1.7v.621h-1.7v4.479h-.948Z" transform="translate(-13.665 -5.341)" fill="#ffc000"/>
        <path id="Path_15" data-name="Path 15" d="M137.226,58.75a2.37,2.37,0,0,1-.674-.206.984.984,0,0,1-.506-.51,2.373,2.373,0,0,1-.158-.954v-1.77a2.686,2.686,0,0,1,.116-.833,1.447,1.447,0,0,1,.305-.559,1.041,1.041,0,0,1,.479-.279,3.231,3.231,0,0,1,.659-.132q.38-.021.79-.021.548,0,.827.026a3.759,3.759,0,0,1,.6.111,1.105,1.105,0,0,1,.506.285,1.545,1.545,0,0,1,.305.548,2.835,2.835,0,0,1,.116.854v1.77a1.785,1.785,0,0,1-.411,1.306,1.135,1.135,0,0,1-.485.264,3.353,3.353,0,0,1-.653.126q-.4.021-.8.021a7.959,7.959,0,0,1-1.012-.047m1.654-.6a1.132,1.132,0,0,0,.39-.116.5.5,0,0,0,.269-.279,1.485,1.485,0,0,0,.079-.542V55.151a1.542,1.542,0,0,0-.115-.69.581.581,0,0,0-.4-.285,5.586,5.586,0,0,0-1.738,0,.578.578,0,0,0-.395.285,1.527,1.527,0,0,0-.116.69v2.065a1.484,1.484,0,0,0,.079.542.5.5,0,0,0,.269.279,1.138,1.138,0,0,0,.39.116c.133.013.348.021.643.021s.509-.007.643-.021" transform="translate(-14.245 -5.607)" fill="#ffc000"/>
        <path id="Path_16" data-name="Path 16" d="M143.257,53.592h.9v.833a.651.651,0,0,1,.211-.458,1.546,1.546,0,0,1,.537-.348,1.712,1.712,0,0,1,.643-.132h.464V54.3h-.526a2.048,2.048,0,0,0-.975.173.664.664,0,0,0-.3.628v3.593h-.948Z" transform="translate(-15.017 -5.607)" fill="#ffc000"/>
        <path id="Path_17" data-name="Path 17" d="M152.306,58.776a3.114,3.114,0,0,1-.543-.1,1.144,1.144,0,0,1-.5-.253,1.337,1.337,0,0,1-.306-.5,2.144,2.144,0,0,1-.126-.79V55.257a1.83,1.83,0,0,1,.327-1.222,1.475,1.475,0,0,1,.363-.321,1.267,1.267,0,0,1,.48-.153q.294-.043.526-.058t.653-.016a6.808,6.808,0,0,1,1.454.158v.695a6.537,6.537,0,0,0-1.57-.21,2.982,2.982,0,0,0-.806.079.555.555,0,0,0-.358.286,1.485,1.485,0,0,0-.1.627v2.087a1.177,1.177,0,0,0,.111.579.625.625,0,0,0,.4.269,3.49,3.49,0,0,0,.858.079,6.092,6.092,0,0,0,1.539-.2v.716a8.142,8.142,0,0,1-1.634.148q-.526,0-.764-.021" transform="translate(-15.811 -5.607)" fill="#ffc000"/>
        <path id="Path_18" data-name="Path 18" d="M156.97,53.592h.9v.833a.651.651,0,0,1,.211-.458,1.546,1.546,0,0,1,.537-.348,1.712,1.712,0,0,1,.643-.132h.464V54.3h-.526a2.048,2.048,0,0,0-.975.173.664.664,0,0,0-.3.628v3.593h-.948Z" transform="translate(-16.455 -5.607)" fill="#ffc000"/>
        <path id="Path_19" data-name="Path 19" d="M161.985,58.66a.96.96,0,0,1-.569-.485,2.3,2.3,0,0,1-.174-1,2.021,2.021,0,0,1,.164-.9.93.93,0,0,1,.558-.457,3.58,3.58,0,0,1,1.123-.138h1.528v-.811a.73.73,0,0,0-.111-.437.611.611,0,0,0-.369-.217,3.379,3.379,0,0,0-.753-.064,13.652,13.652,0,0,0-1.749.126v-.695q1.043-.1,1.886-.095a4.74,4.74,0,0,1,1.306.132.9.9,0,0,1,.58.458,2.453,2.453,0,0,1,.158,1.012v3.6h-.917v-.485q-.117.591-1.539.591a3.6,3.6,0,0,1-1.122-.137m1.28-.485a4.488,4.488,0,0,0,.875-.073q.474-.1.474-.443v-1.39H163.15a2.219,2.219,0,0,0-.653.068.4.4,0,0,0-.263.258,2.121,2.121,0,0,0-.064.611,1.8,1.8,0,0,0,.073.585.5.5,0,0,0,.263.3,1.391,1.391,0,0,0,.569.09Z" transform="translate(-16.903 -5.607)" fill="#ffc000"/>
        <path id="Path_20" data-name="Path 20" d="M168.745,53.946h-1.17v-.621h1.17V52.5a1.422,1.422,0,0,1,.469-1.2,2.314,2.314,0,0,1,1.428-.363,8.044,8.044,0,0,1,.853.053v.621a6.327,6.327,0,0,0-.822-.053,1.181,1.181,0,0,0-.754.19.856.856,0,0,0-.226.685v.885h1.7v.621h-1.7v4.479h-.948Z" transform="translate(-17.567 -5.341)" fill="#ffc000"/>
        <path id="Path_21" data-name="Path 21" d="M174.352,58.482A.941.941,0,0,1,173.82,58a2.3,2.3,0,0,1-.163-.964V54.041h-1.138V53.42h1.138V51.839h.959V53.42h1.823v.621h-1.823v3.044a1.4,1.4,0,0,0,.09.569.52.52,0,0,0,.316.269,2.131,2.131,0,0,0,.659.079q.137,0,.759-.084v.621a6.949,6.949,0,0,1-1.064.084,2.928,2.928,0,0,1-1.022-.142" transform="translate(-18.085 -5.435)" fill="#ffc000"/>
        <path id="Path_22" data-name="Path 22" d="M178.31,57.237V55.224a1.572,1.572,0,0,1,.532-1.333,2.88,2.88,0,0,1,1.723-.406,2.668,2.668,0,0,1,1.627.39,1.61,1.61,0,0,1,.5,1.348v1.128h-3.424v.769a.826.826,0,0,0,.369.758,2.183,2.183,0,0,0,1.138.233,7.064,7.064,0,0,0,1.718-.253v.727a8.69,8.69,0,0,1-1.844.211q-2.339,0-2.339-1.56m3.435-1.507v-.8a.69.69,0,0,0-.279-.637,1.9,1.9,0,0,0-.953-.175,1.944,1.944,0,0,0-.949.175.677.677,0,0,0-.295.637v.8Z" transform="translate(-18.692 -5.607)" fill="#ffc000"/>
        <path id="Path_23" data-name="Path 23" d="M185.9,58.39a1.111,1.111,0,0,1-.628-.5,2,2,0,0,1-.194-.969V54.676a1.257,1.257,0,0,1,.479-1.106,2.831,2.831,0,0,1,1.586-.337,3.445,3.445,0,0,1,1.143.169c.32.112.483.274.49.484h.021l-.021-1.3V51.062h.948v7.375H188.8v-.6c0,.19-.151.352-.453.484a2.906,2.906,0,0,1-1.254.222,3.711,3.711,0,0,1-1.191-.153m2.529-.679a.632.632,0,0,0,.347-.611V54.581q0-.685-1.4-.686a2.96,2.96,0,0,0-1.1.127.555.555,0,0,0-.264.559V57.1a.662.662,0,0,0,.29.611,1.987,1.987,0,0,0,.986.179,2.654,2.654,0,0,0,1.138-.179" transform="translate(-19.401 -5.353)" fill="#ffc000"/>
        <path id="Path_24" data-name="Path 24" d="M195.805,60.894v-.675a17.868,17.868,0,0,0,1.844.148,1.886,1.886,0,0,0,1.06-.232.871.871,0,0,0,.331-.769V58.143c-.014.225-.167.39-.458.5a3.274,3.274,0,0,1-1.1.158,4,4,0,0,1-1.227-.148,1.053,1.053,0,0,1-.622-.484,1.922,1.922,0,0,1-.184-.917V55.172a1.563,1.563,0,0,1,.491-1.3,2.6,2.6,0,0,1,1.607-.389q1.328,0,1.559.6v-.494h.885v5.584a2,2,0,0,1-.264,1.106,1.4,1.4,0,0,1-.79.564,4.767,4.767,0,0,1-1.37.163,11.319,11.319,0,0,1-1.76-.115m2.93-2.908a.713.713,0,0,0,.305-.675V55a1.016,1.016,0,0,0-.11-.526.644.644,0,0,0-.406-.259,3.541,3.541,0,0,0-.864-.08,3.259,3.259,0,0,0-.806.074.561.561,0,0,0-.369.258,1.136,1.136,0,0,0-.1.533V57.31a1.077,1.077,0,0,0,.106.538.573.573,0,0,0,.38.248,3.585,3.585,0,0,0,.811.068,2.235,2.235,0,0,0,1.054-.179" transform="translate(-20.488 -5.607)" fill="#ffc000"/>
        <path id="Path_25" data-name="Path 25" d="M202.828,51.544h.948v.99h-.948Zm0,1.844h.948v5.1h-.948Z" transform="translate(-21.262 -5.404)" fill="#ffc000"/>
        <path id="Path_26" data-name="Path 26" d="M206.563,53.946h-1.17v-.621h1.17V52.5a1.422,1.422,0,0,1,.469-1.2,2.314,2.314,0,0,1,1.428-.363,8.044,8.044,0,0,1,.853.053v.621a6.328,6.328,0,0,0-.822-.053,1.181,1.181,0,0,0-.754.19.856.856,0,0,0-.226.685v.885h1.7v.621h-1.7v4.479h-.948Z" transform="translate(-21.531 -5.341)" fill="#ffc000"/>
        <path id="Path_27" data-name="Path 27" d="M212.17,58.482a.941.941,0,0,1-.533-.484,2.3,2.3,0,0,1-.163-.964V54.041h-1.138V53.42h1.138V51.839h.959V53.42h1.823v.621h-1.823v3.044a1.4,1.4,0,0,0,.09.569.52.52,0,0,0,.316.269A2.131,2.131,0,0,0,213.5,58q.137,0,.759-.084v.621a6.948,6.948,0,0,1-1.064.084,2.928,2.928,0,0,1-1.022-.142" transform="translate(-22.049 -5.435)" fill="#ffc000"/>
        <path id="Path_28" data-name="Path 28" d="M216.116,58.671v-.728a12.507,12.507,0,0,0,1.771.2,2.567,2.567,0,0,0,.969-.132.488.488,0,0,0,.3-.49v-.517a.5.5,0,0,0-.221-.464,1.418,1.418,0,0,0-.717-.137h-.579a1.922,1.922,0,0,1-1.207-.327,1.1,1.1,0,0,1-.416-.917v-.474q0-1.2,2.276-1.2.168,0,1.549.084v.685a10.5,10.5,0,0,0-1.591-.148,2.4,2.4,0,0,0-1.022.148.517.517,0,0,0-.274.5v.432q0,.516.938.517h.589q1.613,0,1.612,1.2v.443a1.206,1.206,0,0,1-.548,1.122,3.314,3.314,0,0,1-1.675.332,13.159,13.159,0,0,1-1.749-.126" transform="translate(-22.644 -5.607)" fill="#ffc000"/>
        <rect id="Rectangle_3" data-name="Rectangle 3" width="29.526" height="0.668" transform="translate(80.76 50.169)" fill="#ffc000"/>
        <rect id="Rectangle_4" data-name="Rectangle 4" width="30.021" height="0.668" transform="translate(204.651 50.168)" fill="#ffc000"/>
        <path id="Path_29" data-name="Path 29" d="M36.379,41.841a3.016,3.016,0,0,1,2.269,1.033.67.67,0,0,0,.5.263.593.593,0,0,0,.381-.149.566.566,0,0,0,.2-.389.7.7,0,0,0-.188-.512,4.026,4.026,0,0,0-2.843-1.434c-.115-.009-.228-.013-.34-.013A4.162,4.162,0,0,0,33.5,41.789a3.139,3.139,0,0,0-.884,3.534,3.657,3.657,0,0,0,3.147,2.33,1.458,1.458,0,0,1,1.083.544c.074.09.15.179.226.269a5.382,5.382,0,0,1,.8,1.11,1.184,1.184,0,0,1-.363,1.581,1.841,1.841,0,0,1-1.132.371,1.915,1.915,0,0,1-1.445-.63,1.133,1.133,0,0,1-.326-.922.619.619,0,0,1,.548-.578.64.64,0,0,1,.329.1,1.561,1.561,0,0,0,.2.109.556.556,0,0,0,.22.044.6.6,0,0,0,.513-.281.577.577,0,0,0-.12-.768A1.811,1.811,0,0,0,35.18,48.2a1.669,1.669,0,0,0-.554.1,1.847,1.847,0,0,0-1.1,1.09,2.09,2.09,0,0,0,.111,1.753,3.14,3.14,0,0,0,4.148,1.251,2.392,2.392,0,0,0,1.153-3.334,6.378,6.378,0,0,0-1.125-1.561,3.322,3.322,0,0,0,1.112-.636,2.105,2.105,0,0,0,.517-2.651,2.43,2.43,0,0,0-1.957-1.266c-.088-.008-.175-.013-.26-.013a2.067,2.067,0,0,0-1.569.671,2.454,2.454,0,0,0-.361.511,2.053,2.053,0,0,0-.2.561,2.192,2.192,0,0,0-.03.6,2.714,2.714,0,0,0,.138.636c.013.038.027.077.042.115a.373.373,0,0,0,.192.222.815.815,0,0,0,.2.054,2.9,2.9,0,0,0,.374.029c.132.006.265.009.4.011.093,0,.185,0,.278,0h.082a.41.41,0,0,1-.04-.063c-.044-.09-.09-.18-.138-.269a3.724,3.724,0,0,1-.29-.648.955.955,0,0,1,.084-.745.912.912,0,0,1,.552-.44,1.251,1.251,0,0,1,.331-.044,1.3,1.3,0,0,1,1.049.533.865.865,0,0,1-.008,1.1,1.668,1.668,0,0,1-.686.521,2.675,2.675,0,0,1-.746.2l0,0a4.783,4.783,0,0,1-.746,0,4.834,4.834,0,0,1-.817-.132,2.644,2.644,0,0,1-.477-.213,2.875,2.875,0,0,1-.684-.561,1.969,1.969,0,0,1-.166-2.555,2.993,2.993,0,0,1,2.394-1.184" transform="translate(-3.395 -4.261)" fill="#ffc000"/>
      </g>
    </g>
  </g>
</svg>
