<svg xmlns="http://www.w3.org/2000/svg" xmlns:xlink="http://www.w3.org/1999/xlink" width="310.55" height="97.305" viewBox="0 0 310.55 97.305">
  <defs>
    <clipPath id="clip-path">
      <rect id="Rectangle_5" data-name="Rectangle 5" width="310.55" height="97.305" fill="none"/>
    </clipPath>
  </defs>
  <g id="Group_6694" data-name="Group 6694" transform="translate(-843 -63)">
    <g id="Group_2" data-name="Group 2" transform="translate(843 63)">
      <g id="Group_1" data-name="Group 1" transform="translate(0 0)" clip-path="url(#clip-path)">
        <path id="Path_1" data-name="Path 1" d="M43.227,97.306a8.125,8.125,0,0,1-4.064-1.086L4.064,75.956A8.149,8.149,0,0,1,0,68.917V28.389A8.152,8.152,0,0,1,4.064,21.35l35.1-20.265a8.156,8.156,0,0,1,8.129,0L82.39,21.35a8.152,8.152,0,0,1,4.064,7.039V68.917a8.149,8.149,0,0,1-4.064,7.039L47.291,96.22a8.128,8.128,0,0,1-4.064,1.086m0-95.8a6.615,6.615,0,0,0-3.31.885L4.818,22.655a6.64,6.64,0,0,0-3.31,5.733V68.917a6.637,6.637,0,0,0,3.31,5.732l35.1,20.265a6.644,6.644,0,0,0,6.619,0l35.1-20.265a6.637,6.637,0,0,0,3.31-5.732V28.389a6.64,6.64,0,0,0-3.31-5.733L46.537,2.392a6.615,6.615,0,0,0-3.31-.885" transform="translate(0 0)" fill="#ffc000"/>
        <path id="Path_2" data-name="Path 2" d="M41.64,83.717a8.135,8.135,0,0,1-4.064-1.085L12.659,68.245a8.151,8.151,0,0,1-4.064-7.039V32.435A8.151,8.151,0,0,1,12.659,25.4L37.576,11.01a8.15,8.15,0,0,1,8.129,0L70.621,25.4a8.152,8.152,0,0,1,4.064,7.039V61.206a8.152,8.152,0,0,1-4.064,7.039L45.7,82.632a8.139,8.139,0,0,1-4.064,1.085m0-72.286a6.615,6.615,0,0,0-3.31.885L13.414,26.7A6.639,6.639,0,0,0,10.1,32.435V61.206a6.639,6.639,0,0,0,3.311,5.733L38.331,81.325a6.638,6.638,0,0,0,6.619,0L69.867,66.939a6.639,6.639,0,0,0,3.311-5.733V32.435A6.639,6.639,0,0,0,69.867,26.7L44.95,12.316a6.614,6.614,0,0,0-3.31-.885" transform="translate(1.587 1.831)" fill="#ffc000"/>
        <path id="Path_3" data-name="Path 3" d="M57.523,36.018a2.015,2.015,0,0,0-2.291-2.286c-2.464,0-4.928,0-7.392-.006-.139,0-.332.116-.393-.133a4.757,4.757,0,0,0,1.784-5.019,4.509,4.509,0,0,0-7.15-2.148,7.889,7.889,0,0,0-2.462,4.06c-.088.29-.071.629-.351.894a9.184,9.184,0,0,0-2.24-4.552c-2.458-2.469-6.731-1.534-7.577,1.69a4.637,4.637,0,0,0,1.788,5.1c-.187.184-.354.109-.5.109-2.44,0-4.881,0-7.322.007a2.016,2.016,0,0,0-2.276,2.241q-.025,1.969,0,3.936a1.9,1.9,0,0,0,1.592,2.033c.564.054.588.295.586.74q-.018,8.321,0,16.645A2.913,2.913,0,0,0,26.5,62.491q12.849,0,25.7,0a2.933,2.933,0,0,0,3.168-3.184q.005-6.976,0-13.952,0-1.45,0-2.9c0-.233-.022-.415.321-.482a1.931,1.931,0,0,0,1.835-2.226c.008-1.244.011-2.488,0-3.73m-16.5-4.607a7.009,7.009,0,0,1,1.689-3.416,2.967,2.967,0,0,1,3.1-.84,2.5,2.5,0,0,1,1.9,1.881,3.12,3.12,0,0,1-1.674,3.519,7.31,7.31,0,0,1-3.548.692c-1.892,0-1.908-.007-1.468-1.836M30.919,29.194a2.873,2.873,0,0,1,4.409-1.7,5.211,5.211,0,0,1,1.932,2.69,17.067,17.067,0,0,1,.652,2.526c.081.381-.078.431-.367.45-.5.033-1.007.075-1.509.113A7.657,7.657,0,0,1,32.69,32.6a3.083,3.083,0,0,1-1.771-3.4M53.778,60.343a.559.559,0,0,1-.559.558H25.448a.558.558,0,0,1-.559-.558V42.54c0-.416.105-.553.538-.551H40.743l.078,0c.3,0,.591,0,.887,0H53.219c.008,0,.015,0,.023,0,.367.018.513.137.532.533,0,.007,0,.014,0,.021Zm2.155-20.655c.013.52-.13.746-.692.745q-7.008-.021-14.016,0l-17.988.034A.467.467,0,0,1,22.768,40v-.011a1.355,1.355,0,0,1-.03-.36c.021-.6.027-1.2.025-1.808v-.059c0-.6-.011-1.2-.02-1.793-.008-.468.152-.656.638-.655q7.321.018,14.642,0c.025,0,.044,0,.066,0l17.347-.033a.462.462,0,0,1,.455.4,1.271,1.271,0,0,1,.044.419c-.019.592-.026,1.186-.026,1.779v.033q0,.887.024,1.773" transform="translate(3.9 4.693)" fill="#ffc000"/>
        <rect id="Rectangle_1" data-name="Rectangle 1" width="1.516" height="6.448" transform="translate(43.7 39.612)" fill="#ffc000"/>
        <rect id="Rectangle_2" data-name="Rectangle 2" width="1.516" height="6.448" transform="translate(41.237 39.612)" fill="#ffc000"/>
        <path id="Path_4" data-name="Path 4" d="M110.841,37.713h-1.278v8.36h-2.819l-.361-2.492a7.34,7.34,0,0,1-2.59,2.033,8.475,8.475,0,0,1-3.769.787,8.9,8.9,0,0,1-7.13-3.131,11.476,11.476,0,0,1-2.672-7.721,11.617,11.617,0,0,1,2.82-7.834,9.894,9.894,0,0,1,7.932-3.278,13.5,13.5,0,0,1,4.622.737,9.067,9.067,0,0,1,3.147,1.786l.591,4.392-2.984.295-.59-2.688a8.372,8.372,0,0,0-4.852-1.311,6.4,6.4,0,0,0-4.885,2.033,8.182,8.182,0,0,0-1.9,5.8,8.238,8.238,0,0,0,1.8,5.7,6.057,6.057,0,0,0,4.722,2,5.418,5.418,0,0,0,3.868-1.327,4.421,4.421,0,0,0,1.41-3.361v-.787H101.4V34.6h9.441Z" transform="translate(16.654 4.51)" fill="#ffc000"/>
        <path id="Path_5" data-name="Path 5" d="M130.781,35.385a11.223,11.223,0,0,1-2.918,7.77A10.171,10.171,0,0,1,119.9,46.4a9.908,9.908,0,0,1-7.9-3.245,11.359,11.359,0,0,1-2.819-7.7,11.085,11.085,0,0,1,2.951-7.835A10.216,10.216,0,0,1,120,24.436a10.07,10.07,0,0,1,7.883,3.228,11.161,11.161,0,0,1,2.9,7.721m-3.934.1a8.492,8.492,0,0,0-1.818-5.7,6.3,6.3,0,0,0-5.066-2.131,6.1,6.1,0,0,0-5.13,2.213,8.684,8.684,0,0,0-1.72,5.491A9.13,9.13,0,0,0,114.8,40.86a7.066,7.066,0,0,0,10.344.148,8.7,8.7,0,0,0,1.7-5.525" transform="translate(20.153 4.51)" fill="#ffc000"/>
        <path id="Path_6" data-name="Path 6" d="M150.65,35.385a11.223,11.223,0,0,1-2.918,7.77,10.171,10.171,0,0,1-7.965,3.245,9.908,9.908,0,0,1-7.9-3.245,11.359,11.359,0,0,1-2.819-7.7A11.085,11.085,0,0,1,132,27.615a10.216,10.216,0,0,1,7.868-3.179,10.07,10.07,0,0,1,7.884,3.228,11.161,11.161,0,0,1,2.9,7.721m-3.934.1a8.492,8.492,0,0,0-1.818-5.7,6.3,6.3,0,0,0-5.067-2.131,6.1,6.1,0,0,0-5.13,2.213,8.684,8.684,0,0,0-1.72,5.491,9.13,9.13,0,0,0,1.688,5.508,7.066,7.066,0,0,0,10.344.148,8.7,8.7,0,0,0,1.7-5.525" transform="translate(23.821 4.51)" fill="#ffc000"/>
        <path id="Path_7" data-name="Path 7" d="M169.515,35.3a10.717,10.717,0,0,1-2.852,7.753,10.441,10.441,0,0,1-7.9,2.967h-9.9V42.907h2.459V27.826h-2.459V24.712h9.7q5.375,0,8.162,2.951a10.675,10.675,0,0,1,2.787,7.638m-3.9.033q0-7.507-7.145-7.508h-3.509V42.907h3.509q7.145,0,7.145-7.573" transform="translate(27.479 4.561)" fill="#ffc000"/>
        <path id="Path_8" data-name="Path 8" d="M176.48,46.022h-8.522V42.907h2.458V27.826h-2.458V24.712h8.522v3.114h-2.426V42.907h2.426Z" transform="translate(31.004 4.561)" fill="#ffc000"/>
        <path id="Path_9" data-name="Path 9" d="M193.621,46.022H177.394V42.907h2.458V27.826h-2.458V24.712h16l.654,6.163-3.114.262-.655-3.311H183.49v5.9h9.376v3.113H183.49v6.066h7.016l.656-3.311,3.114.262Z" transform="translate(32.745 4.561)" fill="#ffc000"/>
        <path id="Path_10" data-name="Path 10" d="M209.217,39.811A5.8,5.8,0,0,1,207,44.7a9.335,9.335,0,0,1-5.852,1.7,16.545,16.545,0,0,1-4.179-.524,8.138,8.138,0,0,1-3.2-1.508l.59-4.884,2.918.295-.066,2.623a6.784,6.784,0,0,0,1.984.7,10.484,10.484,0,0,0,1.688.148,7.319,7.319,0,0,0,3.164-.605,2.439,2.439,0,0,0,1.262-2.444,2.65,2.65,0,0,0-1.443-2.671,14.215,14.215,0,0,0-3.311-1.033,27.179,27.179,0,0,1-3.049-.787,5.62,5.62,0,0,1-2.556-1.639A4.95,4.95,0,0,1,193.94,30.7a5.268,5.268,0,0,1,2.278-4.8,9.258,9.258,0,0,1,5.1-1.458,12.512,12.512,0,0,1,3.819.59,7.8,7.8,0,0,1,2.9,1.541l.2,4.491-2.918.263-.295-2.755a6.388,6.388,0,0,0-1.836-.72,8.488,8.488,0,0,0-1.77-.2,4.835,4.835,0,0,0-2.558.622,2.171,2.171,0,0,0-1.016,2,2.167,2.167,0,0,0,1.263,2.18,14.869,14.869,0,0,0,2.835.935q1.343.295,3.05.787a6.8,6.8,0,0,1,2.966,1.753,5.3,5.3,0,0,1,1.262,3.885" transform="translate(35.77 4.51)" fill="#ffc000"/>
        <path id="Path_11" data-name="Path 11" d="M227.959,31.663l-3.146.263-.656-4.1h-4.164V42.908h3.574v3.114H212.912V42.908h3.441V27.827h-4.2l-.656,4.1-3.113-.263.655-6.95H227.3Z" transform="translate(38.467 4.561)" fill="#ffc000"/>
        <path id="Path_12" data-name="Path 12" d="M247.923,35.385a11.223,11.223,0,0,1-2.918,7.77A10.17,10.17,0,0,1,237.04,46.4a9.908,9.908,0,0,1-7.9-3.245,11.359,11.359,0,0,1-2.819-7.7,11.085,11.085,0,0,1,2.951-7.835,10.216,10.216,0,0,1,7.868-3.179,10.07,10.07,0,0,1,7.883,3.228,11.161,11.161,0,0,1,2.9,7.721m-3.934.1a8.492,8.492,0,0,0-1.818-5.7,6.3,6.3,0,0,0-5.067-2.131,6.1,6.1,0,0,0-5.13,2.213,8.684,8.684,0,0,0-1.72,5.491,9.131,9.131,0,0,0,1.688,5.508,7.066,7.066,0,0,0,10.344.148,8.7,8.7,0,0,0,1.7-5.525" transform="translate(41.777 4.51)" fill="#ffc000"/>
        <path id="Path_13" data-name="Path 13" d="M265.115,46.021h-4.982L255.74,37.6h-3.509v5.311h2.492v3.114h-8.588V42.907h2.458V27.826h-2.458V24.713h9.473q3.966,0,5.932,1.655a5.729,5.729,0,0,1,1.969,4.639,5.968,5.968,0,0,1-1.131,3.656,6.166,6.166,0,0,1-3.131,2.18l3.245,6.065h2.623ZM259.64,31.105a2.892,2.892,0,0,0-1.05-2.541,6.451,6.451,0,0,0-3.573-.738h-2.787v6.853h2.754a5.415,5.415,0,0,0,3.639-.935,3.4,3.4,0,0,0,1.016-2.639" transform="translate(45.434 4.561)" fill="#ffc000"/>
        <path id="Path_14" data-name="Path 14" d="M131.9,54.917h-1.548V54.1H131.9V53.008a1.881,1.881,0,0,1,.621-1.583,3.062,3.062,0,0,1,1.889-.481,10.646,10.646,0,0,1,1.129.07v.822a8.373,8.373,0,0,0-1.087-.07,1.563,1.563,0,0,0-1,.251,1.133,1.133,0,0,0-.3.906V54.1H135.4v.822h-2.246v5.927H131.9Z" transform="translate(24.063 9.403)" fill="#ffc000"/>
        <path id="Path_15" data-name="Path 15" d="M137.659,60.451a3.137,3.137,0,0,1-.892-.272,1.3,1.3,0,0,1-.669-.675,3.14,3.14,0,0,1-.21-1.263V55.9a3.555,3.555,0,0,1,.154-1.1,1.916,1.916,0,0,1,.4-.739,1.378,1.378,0,0,1,.634-.37,4.276,4.276,0,0,1,.872-.174q.5-.028,1.046-.028.725,0,1.095.034a4.974,4.974,0,0,1,.788.147,1.463,1.463,0,0,1,.669.377,2.045,2.045,0,0,1,.4.725,3.751,3.751,0,0,1,.154,1.13v2.342a2.362,2.362,0,0,1-.544,1.728,1.5,1.5,0,0,1-.642.349,4.437,4.437,0,0,1-.864.167q-.531.028-1.06.028a10.532,10.532,0,0,1-1.339-.063m2.189-.788a1.5,1.5,0,0,0,.516-.154.656.656,0,0,0,.355-.37,1.965,1.965,0,0,0,.1-.718V55.689a2.04,2.04,0,0,0-.153-.913.769.769,0,0,0-.524-.377,7.393,7.393,0,0,0-2.3,0,.765.765,0,0,0-.522.377,2.021,2.021,0,0,0-.154.913v2.733a1.964,1.964,0,0,0,.1.718.656.656,0,0,0,.355.37,1.506,1.506,0,0,0,.516.154c.176.018.461.027.851.027s.674-.009.851-.027" transform="translate(25.084 9.873)" fill="#ffc000"/>
        <path id="Path_16" data-name="Path 16" d="M143.257,53.626h1.185v1.1a.862.862,0,0,1,.28-.607,2.046,2.046,0,0,1,.711-.461,2.266,2.266,0,0,1,.851-.174h.614V54.56h-.7a2.71,2.71,0,0,0-1.29.229.878.878,0,0,0-.4.83v4.755h-1.254Z" transform="translate(26.444 9.873)" fill="#ffc000"/>
        <path id="Path_17" data-name="Path 17" d="M152.784,60.486a4.122,4.122,0,0,1-.719-.139,1.514,1.514,0,0,1-.668-.335,1.769,1.769,0,0,1-.405-.655,2.838,2.838,0,0,1-.167-1.046V55.829a2.422,2.422,0,0,1,.432-1.617,1.951,1.951,0,0,1,.481-.425,1.677,1.677,0,0,1,.635-.2q.389-.057.7-.077t.865-.021a9.009,9.009,0,0,1,1.924.21v.919a8.65,8.65,0,0,0-2.078-.278,3.946,3.946,0,0,0-1.066.1.734.734,0,0,0-.474.378,1.965,1.965,0,0,0-.133.829v2.761a1.558,1.558,0,0,0,.147.766.827.827,0,0,0,.53.355,4.618,4.618,0,0,0,1.136.1,8.061,8.061,0,0,0,2.036-.264v.948a10.774,10.774,0,0,1-2.162.2q-.7,0-1.01-.028" transform="translate(27.841 9.873)" fill="#ffc000"/>
        <path id="Path_18" data-name="Path 18" d="M156.97,53.626h1.185v1.1a.862.862,0,0,1,.28-.607,2.045,2.045,0,0,1,.711-.461,2.266,2.266,0,0,1,.851-.174h.614V54.56h-.7a2.71,2.71,0,0,0-1.29.229.878.878,0,0,0-.4.83v4.755H156.97Z" transform="translate(28.975 9.873)" fill="#ffc000"/>
        <path id="Path_19" data-name="Path 19" d="M162.225,60.333a1.27,1.27,0,0,1-.753-.642,3.048,3.048,0,0,1-.23-1.324,2.675,2.675,0,0,1,.217-1.193,1.231,1.231,0,0,1,.738-.605,4.737,4.737,0,0,1,1.485-.182H165.7V55.313a.967.967,0,0,0-.147-.578.809.809,0,0,0-.488-.287,4.471,4.471,0,0,0-1-.084,18.067,18.067,0,0,0-2.315.167v-.919q1.381-.126,2.5-.126a6.272,6.272,0,0,1,1.728.174,1.193,1.193,0,0,1,.768.607,3.247,3.247,0,0,1,.208,1.339v4.769h-1.213v-.642q-.155.782-2.036.782a4.77,4.77,0,0,1-1.484-.181m1.694-.642a5.939,5.939,0,0,0,1.157-.1q.627-.126.628-.586v-1.84h-1.938a2.937,2.937,0,0,0-.865.09.523.523,0,0,0-.348.341,2.806,2.806,0,0,0-.084.809,2.381,2.381,0,0,0,.1.774.662.662,0,0,0,.348.391,1.84,1.84,0,0,0,.753.118Z" transform="translate(29.764 9.873)" fill="#ffc000"/>
        <path id="Path_20" data-name="Path 20" d="M169.123,54.917h-1.548V54.1h1.548V53.008a1.881,1.881,0,0,1,.621-1.583,3.062,3.062,0,0,1,1.889-.481,10.645,10.645,0,0,1,1.129.07v.822a8.372,8.372,0,0,0-1.087-.07,1.563,1.563,0,0,0-1,.251,1.133,1.133,0,0,0-.3.906V54.1h2.246v.822h-2.246v5.927h-1.254Z" transform="translate(30.933 9.403)" fill="#ffc000"/>
        <path id="Path_21" data-name="Path 21" d="M174.945,60.63a1.245,1.245,0,0,1-.7-.641,3.045,3.045,0,0,1-.216-1.276v-3.96h-1.506v-.822h1.506V51.839h1.269v2.092h2.413v.822h-2.413v4.029a1.852,1.852,0,0,0,.118.753.689.689,0,0,0,.418.357,2.82,2.82,0,0,0,.872.1q.181,0,1-.111v.822a9.2,9.2,0,0,1-1.409.111,3.874,3.874,0,0,1-1.353-.188" transform="translate(31.846 9.569)" fill="#ffc000"/>
        <path id="Path_22" data-name="Path 22" d="M178.31,58.449V55.786a2.08,2.08,0,0,1,.7-1.764,3.811,3.811,0,0,1,2.28-.537,3.531,3.531,0,0,1,2.154.516,2.131,2.131,0,0,1,.662,1.784v1.493h-4.531V58.3a1.093,1.093,0,0,0,.488,1,2.888,2.888,0,0,0,1.506.308,9.347,9.347,0,0,0,2.273-.335v.962a11.5,11.5,0,0,1-2.44.28q-3.1,0-3.1-2.065m4.545-1.994V55.4a.913.913,0,0,0-.37-.843,2.516,2.516,0,0,0-1.262-.231,2.573,2.573,0,0,0-1.256.231.9.9,0,0,0-.39.843v1.059Z" transform="translate(32.914 9.873)" fill="#ffc000"/>
        <path id="Path_23" data-name="Path 23" d="M186.165,60.759a1.47,1.47,0,0,1-.83-.662,2.649,2.649,0,0,1-.257-1.283v-2.97a1.663,1.663,0,0,1,.634-1.464,3.746,3.746,0,0,1,2.1-.447,4.559,4.559,0,0,1,1.513.224c.423.148.639.362.648.641H190l-.028-1.715V51.062h1.254v9.76H190v-.795c0,.251-.2.466-.6.641a3.846,3.846,0,0,1-1.66.294,4.911,4.911,0,0,1-1.576-.2m3.346-.9a.836.836,0,0,0,.46-.809V55.719q0-.906-1.854-.907a3.918,3.918,0,0,0-1.45.168.734.734,0,0,0-.349.739v3.332a.875.875,0,0,0,.384.809,2.629,2.629,0,0,0,1.3.237,3.512,3.512,0,0,0,1.506-.237" transform="translate(34.164 9.425)" fill="#ffc000"/>
        <path id="Path_24" data-name="Path 24" d="M195.921,63.288V62.4a23.642,23.642,0,0,0,2.44.2,2.5,2.5,0,0,0,1.4-.307,1.152,1.152,0,0,0,.438-1.018V59.648c-.019.3-.22.516-.607.656a4.332,4.332,0,0,1-1.457.208,5.289,5.289,0,0,1-1.624-.2,1.393,1.393,0,0,1-.823-.641,2.543,2.543,0,0,1-.244-1.213V55.717A2.069,2.069,0,0,1,196.1,54a3.445,3.445,0,0,1,2.126-.515q1.757,0,2.064.794v-.654h1.172v7.389a2.647,2.647,0,0,1-.349,1.464,1.858,1.858,0,0,1-1.045.746,6.308,6.308,0,0,1-1.814.216,14.977,14.977,0,0,1-2.329-.153M199.8,59.44a.944.944,0,0,0,.4-.893V55.494a1.344,1.344,0,0,0-.146-.7.853.853,0,0,0-.538-.342,4.685,4.685,0,0,0-1.143-.105,4.313,4.313,0,0,0-1.066.1.742.742,0,0,0-.488.341,1.5,1.5,0,0,0-.133.7v3.053a1.425,1.425,0,0,0,.14.712.758.758,0,0,0,.5.328,4.745,4.745,0,0,0,1.073.09,2.958,2.958,0,0,0,1.394-.237" transform="translate(36.078 9.873)" fill="#ffc000"/>
        <path id="Path_25" data-name="Path 25" d="M202.828,51.544h1.254v1.31h-1.254Zm0,2.44h1.254v6.749h-1.254Z" transform="translate(37.44 9.514)" fill="#ffc000"/>
        <path id="Path_26" data-name="Path 26" d="M206.941,54.917h-1.548V54.1h1.548V53.008a1.881,1.881,0,0,1,.621-1.583,3.062,3.062,0,0,1,1.889-.481,10.646,10.646,0,0,1,1.129.07v.822a8.374,8.374,0,0,0-1.087-.07,1.563,1.563,0,0,0-1,.251,1.133,1.133,0,0,0-.3.906V54.1h2.246v.822H208.2v5.927h-1.255Z" transform="translate(37.914 9.403)" fill="#ffc000"/>
        <path id="Path_27" data-name="Path 27" d="M212.763,60.63a1.245,1.245,0,0,1-.7-.641,3.046,3.046,0,0,1-.216-1.276v-3.96h-1.506v-.822h1.506V51.839h1.269v2.092h2.413v.822h-2.413v4.029a1.853,1.853,0,0,0,.118.753.689.689,0,0,0,.418.357,2.82,2.82,0,0,0,.872.1q.181,0,1-.111v.822a9.2,9.2,0,0,1-1.408.111,3.874,3.874,0,0,1-1.353-.188" transform="translate(38.826 9.569)" fill="#ffc000"/>
        <path id="Path_28" data-name="Path 28" d="M216.15,60.347v-.963a16.55,16.55,0,0,0,2.343.265,3.4,3.4,0,0,0,1.282-.174.645.645,0,0,0,.391-.648v-.684a.665.665,0,0,0-.293-.614,1.876,1.876,0,0,0-.949-.181h-.766a2.544,2.544,0,0,1-1.6-.432,1.452,1.452,0,0,1-.551-1.213v-.627q0-1.59,3.012-1.59.222,0,2.049.111V54.5a13.9,13.9,0,0,0-2.105-.2,3.18,3.18,0,0,0-1.353.2.684.684,0,0,0-.362.655v.572q0,.682,1.241.684h.779q2.134,0,2.133,1.589v.586a1.6,1.6,0,0,1-.725,1.484,4.385,4.385,0,0,1-2.216.439,17.412,17.412,0,0,1-2.315-.167" transform="translate(39.874 9.873)" fill="#ffc000"/>
        <rect id="Rectangle_3" data-name="Rectangle 3" width="39.073" height="0.884" transform="translate(106.87 66.389)" fill="#ffc000"/>
        <rect id="Rectangle_4" data-name="Rectangle 4" width="39.728" height="0.884" transform="translate(270.817 66.388)" fill="#ffc000"/>
        <path id="Path_29" data-name="Path 29" d="M37.67,42.23a3.991,3.991,0,0,1,3,1.367.886.886,0,0,0,.667.348.784.784,0,0,0,.5-.2.749.749,0,0,0,.271-.515.922.922,0,0,0-.249-.678,5.328,5.328,0,0,0-3.762-1.9c-.152-.012-.3-.017-.45-.017a5.508,5.508,0,0,0-3.8,1.519,4.154,4.154,0,0,0-1.169,4.677A4.839,4.839,0,0,0,36.85,49.92a1.929,1.929,0,0,1,1.433.72c.1.12.2.237.3.355a7.122,7.122,0,0,1,1.054,1.469,1.567,1.567,0,0,1-.481,2.092,2.436,2.436,0,0,1-1.5.492,2.534,2.534,0,0,1-1.912-.834,1.5,1.5,0,0,1-.431-1.22.819.819,0,0,1,.725-.765.847.847,0,0,1,.435.137,2.068,2.068,0,0,0,.265.145.736.736,0,0,0,.291.058.8.8,0,0,0,.679-.372.764.764,0,0,0-.159-1.016,2.4,2.4,0,0,0-1.468-.541,2.208,2.208,0,0,0-.733.128A2.444,2.444,0,0,0,33.9,52.21a2.766,2.766,0,0,0,.147,2.319,4.155,4.155,0,0,0,5.489,1.656,3.165,3.165,0,0,0,1.526-4.411,8.44,8.44,0,0,0-1.489-2.066,4.4,4.4,0,0,0,1.471-.842,2.786,2.786,0,0,0,.684-3.508,3.216,3.216,0,0,0-2.59-1.675c-.116-.011-.231-.017-.345-.017a2.735,2.735,0,0,0-2.077.888,3.247,3.247,0,0,0-.477.676,2.717,2.717,0,0,0-.261.743,2.9,2.9,0,0,0-.04.8,3.591,3.591,0,0,0,.182.841c.018.051.036.1.056.152a.494.494,0,0,0,.254.294,1.079,1.079,0,0,0,.259.071,3.836,3.836,0,0,0,.5.038c.175.008.351.012.525.014.123,0,.245,0,.368,0h.109a.542.542,0,0,1-.053-.083c-.058-.12-.12-.238-.182-.357a4.928,4.928,0,0,1-.384-.858,1.263,1.263,0,0,1,.111-.986,1.206,1.206,0,0,1,.731-.583,1.655,1.655,0,0,1,.438-.058,1.719,1.719,0,0,1,1.388.7,1.144,1.144,0,0,1-.011,1.461,2.208,2.208,0,0,1-.907.689,3.54,3.54,0,0,1-.987.265l0,0a6.329,6.329,0,0,1-.987,0,6.4,6.4,0,0,1-1.082-.174,3.5,3.5,0,0,1-.631-.282,3.8,3.8,0,0,1-.905-.743A2.606,2.606,0,0,1,34.5,43.8,3.961,3.961,0,0,1,37.67,42.23" transform="translate(5.978 7.501)" fill="#ffc000"/>
      </g>
    </g>
  </g>
</svg>
