<svg xmlns="http://www.w3.org/2000/svg" width="30.553" height="29.205" viewBox="0 0 30.553 29.205">
  <path id="Path_5" data-name="Path 5" d="M6.935,29.2V9.5H.386V29.2ZM3.662,6.808A3.415,3.415,0,1,0,3.7,0a3.414,3.414,0,1,0-.086,6.809h.043Zm6.9,22.4H17.11v-11a4.489,4.489,0,0,1,.216-1.6,3.585,3.585,0,0,1,3.36-2.4c2.37,0,3.318,1.807,3.318,4.456V29.2h6.549v-11.3c0-6.052-3.231-8.869-7.54-8.869a6.524,6.524,0,0,0-5.946,3.32h.044V9.5H10.561c.086,1.849,0,19.7,0,19.7Z" transform="translate(0)" fill="#dedede"/>
</svg>
