<svg xmlns="http://www.w3.org/2000/svg" width="26.052" height="26.052" viewBox="0 0 26.052 26.052">
  <path id="Path_1" data-name="Path 1" d="M29.026,16c-3.538,0-3.981.016-5.371.078a9.581,9.581,0,0,0-3.161.606,6.65,6.65,0,0,0-3.81,3.81,9.58,9.58,0,0,0-.606,3.161c-.064,1.39-.078,1.833-.078,5.371s.014,3.981.078,5.371a9.58,9.58,0,0,0,.606,3.161,6.651,6.651,0,0,0,3.81,3.81,9.581,9.581,0,0,0,3.161.606c1.39.063,1.833.078,5.371.078s3.981-.016,5.371-.078a9.581,9.581,0,0,0,3.161-.606,6.651,6.651,0,0,0,3.81-3.81,9.581,9.581,0,0,0,.606-3.161c.063-1.39.078-1.833.078-5.371s-.016-3.981-.078-5.371a9.581,9.581,0,0,0-.606-3.161,6.651,6.651,0,0,0-3.81-3.81,9.58,9.58,0,0,0-3.161-.606c-1.39-.063-1.833-.078-5.371-.078m0,2.347c3.478,0,3.89.013,5.262.076a7.234,7.234,0,0,1,2.42.448,4.312,4.312,0,0,1,2.472,2.472,7.232,7.232,0,0,1,.448,2.419c.063,1.374.076,1.785.076,5.264s-.013,3.89-.076,5.262a7.269,7.269,0,0,1-.448,2.42,4.312,4.312,0,0,1-2.472,2.472,7.232,7.232,0,0,1-2.419.448c-1.373.063-1.785.076-5.264.076s-3.891-.013-5.262-.076a7.269,7.269,0,0,1-2.42-.448,4.312,4.312,0,0,1-2.472-2.472,7.2,7.2,0,0,1-.448-2.419c-.063-1.374-.076-1.785-.076-5.264s.013-3.89.076-5.262a7.234,7.234,0,0,1,.448-2.42,4.312,4.312,0,0,1,2.472-2.472,7.2,7.2,0,0,1,2.419-.448c1.374-.063,1.785-.076,5.264-.076m0,15.02a4.342,4.342,0,1,1,4.342-4.342,4.342,4.342,0,0,1-4.342,4.342m0-11.03a6.689,6.689,0,1,0,6.689,6.689,6.689,6.689,0,0,0-6.689-6.689m8.516-.264a1.563,1.563,0,1,1-1.563-1.563,1.563,1.563,0,0,1,1.563,1.563" transform="translate(-16 -16)" fill="#c6a465" fill-rule="evenodd"/>
</svg>
