<svg xmlns="http://www.w3.org/2000/svg" width="25.359" height="21.132" viewBox="0 0 25.359 21.132">
  <path id="Path_34" data-name="Path 34" d="M25.359,18.474a6.809,6.809,0,0,1-.947,1.357,6.974,6.974,0,0,1-1.71,1.442q.028.226.042.424a15.384,15.384,0,0,1-1.088,5.895,15.52,15.52,0,0,1-6.177,7.676A16.245,16.245,0,0,1,5.81,37.034,11.11,11.11,0,0,1,0,34.786a10.827,10.827,0,0,0,7.746-2.233,5.337,5.337,0,0,1-4.919-3.647,3.313,3.313,0,0,0,1.1.057,10.212,10.212,0,0,0,1.244-.17A5.833,5.833,0,0,1,1.64,26.051a5.911,5.911,0,0,1-.594-2.6,4.971,4.971,0,0,0,2.347.707,6.063,6.063,0,0,1-2.3-3.746,6.936,6.936,0,0,1,.636-3.378,17.783,17.783,0,0,0,6.036,4.523,12.494,12.494,0,0,0,4.735.989,6.329,6.329,0,0,1,.636-4.015A5.472,5.472,0,0,1,16.4,16.156a4.82,4.82,0,0,1,4.834,1.5A8.607,8.607,0,0,0,24.6,16.41a5.1,5.1,0,0,1-2.318,3A14.661,14.661,0,0,0,25.359,18.474Z" transform="translate(0 -16.002)" fill="#c6a465"/>
</svg>
