<svg xmlns="http://www.w3.org/2000/svg" width="15.489" height="12.908" viewBox="0 0 15.489 12.908">
  <path id="Path_34" data-name="Path 34" d="M15.489,17.512a4.159,4.159,0,0,1-.578.829,4.26,4.26,0,0,1-1.045.881q.017.138.026.259a9.4,9.4,0,0,1-.665,3.6,9.48,9.48,0,0,1-3.773,4.688,9.923,9.923,0,0,1-5.906,1.079A6.786,6.786,0,0,1,0,27.475a6.613,6.613,0,0,0,4.731-1.364,3.26,3.26,0,0,1-3-2.228,2.024,2.024,0,0,0,.673.035,6.237,6.237,0,0,0,.76-.1A3.562,3.562,0,0,1,1,22.139a3.61,3.61,0,0,1-.363-1.589,3.036,3.036,0,0,0,1.433.432A3.7,3.7,0,0,1,.665,18.694a4.236,4.236,0,0,1,.389-2.064A10.862,10.862,0,0,0,4.74,19.394a7.631,7.631,0,0,0,2.892.6,3.866,3.866,0,0,1,.389-2.452A3.342,3.342,0,0,1,10.016,16.1a2.944,2.944,0,0,1,2.953.915,5.257,5.257,0,0,0,2.055-.76,3.118,3.118,0,0,1-1.416,1.83A8.955,8.955,0,0,0,15.489,17.512Z" transform="translate(0 -16.002)"/>
</svg>
