<svg xmlns="http://www.w3.org/2000/svg" width="18.662" height="17.838" viewBox="0 0 18.662 17.838">
  <path id="Path_5" data-name="Path 5" d="M4.236,17.838V5.8h-4V17.838Zm-2-13.68A2.086,2.086,0,1,0,2.263,0,2.085,2.085,0,1,0,2.21,4.158h.026ZM6.45,17.838h4V11.117a2.742,2.742,0,0,1,.132-.976,2.19,2.19,0,0,1,2.052-1.463c1.448,0,2.027,1.1,2.027,2.722v6.439h4v-6.9c0-3.7-1.974-5.417-4.606-5.417a3.985,3.985,0,0,0-3.632,2.028h.027V5.8h-4c.052,1.129,0,12.035,0,12.035Z" transform="translate(0 0)"/>
</svg>
