<svg xmlns="http://www.w3.org/2000/svg" width="15.912" height="15.912" viewBox="0 0 15.912 15.912">
  <path id="Path_1" data-name="Path 1" d="M23.956,16c-2.161,0-2.431.01-3.28.048a5.852,5.852,0,0,0-1.931.37,4.062,4.062,0,0,0-2.327,2.327,5.852,5.852,0,0,0-.37,1.931c-.039.849-.048,1.119-.048,3.28s.009,2.431.048,3.28a5.852,5.852,0,0,0,.37,1.931,4.062,4.062,0,0,0,2.327,2.327,5.852,5.852,0,0,0,1.931.37c.849.038,1.119.048,3.28.048s2.431-.01,3.28-.048a5.852,5.852,0,0,0,1.931-.37,4.062,4.062,0,0,0,2.327-2.327,5.852,5.852,0,0,0,.37-1.931c.038-.849.048-1.119.048-3.28s-.01-2.431-.048-3.28a5.852,5.852,0,0,0-.37-1.931,4.062,4.062,0,0,0-2.327-2.327,5.852,5.852,0,0,0-1.931-.37c-.849-.038-1.119-.048-3.28-.048m0,1.434c2.124,0,2.376.008,3.214.046a4.419,4.419,0,0,1,1.478.274,2.634,2.634,0,0,1,1.51,1.51,4.417,4.417,0,0,1,.274,1.477c.038.839.046,1.09.046,3.215s-.008,2.376-.046,3.214a4.44,4.44,0,0,1-.274,1.478,2.634,2.634,0,0,1-1.51,1.51,4.417,4.417,0,0,1-1.477.274c-.839.038-1.09.046-3.215.046s-2.376-.008-3.214-.046a4.44,4.44,0,0,1-1.478-.274,2.634,2.634,0,0,1-1.51-1.51,4.4,4.4,0,0,1-.274-1.477c-.038-.839-.046-1.09-.046-3.215s.008-2.376.046-3.214a4.419,4.419,0,0,1,.274-1.478,2.634,2.634,0,0,1,1.51-1.51,4.4,4.4,0,0,1,1.477-.274c.839-.038,1.09-.046,3.215-.046m0,9.174a2.652,2.652,0,1,1,2.652-2.652,2.652,2.652,0,0,1-2.652,2.652m0-6.737a4.085,4.085,0,1,0,4.085,4.085,4.085,4.085,0,0,0-4.085-4.085m5.2-.162a.955.955,0,1,1-.955-.955.955.955,0,0,1,.955.955" transform="translate(-16 -16)" fill-rule="evenodd"/>
</svg>
